<svg id="Layer_1" enable-background="new 0 0 511.223 511.223" height="512" viewBox="0 0 511.223 511.223" width="512" xmlns="http://www.w3.org/2000/svg">
	<style>
		path  { fill: white}
	</style>
	<g><path d="m340.843 262.941v20.661c0 15.075 23.56 1.357 28.943-.917 63.489 29.174 138.75-19.648 137.92-89.608.001-54.063-43.991-98.049-98.065-98.049-87.19-.106-130.942 106.958-68.798 167.913zm68.799-152.913c45.803 0 83.065 37.256 83.065 83.05.74 60.483-65.516 101.841-119.477 74.662-2.058-.954-4.128-1.011-6.211-.17l-11.177 4.722v-12.564c0-2.098-.879-4.1-2.423-5.52-55.369-50.816-18.988-144.222 56.223-144.18z"/><path d="m386.11 180.061c4.143 0 7.5-3.357 7.5-7.5 0-8.726 7.651-16.16 16.367-16.029 8.356.168 15.242 6.83 15.675 15.166.471 9.064-6.922 16.896-16.01 16.896-4.143 0-7.5 3.357-7.5 7.5v24.607c.339 9.921 14.657 9.932 15 0v-18.037c14.235-3.569 24.251-17.074 23.49-31.743-.839-16.152-14.172-29.06-30.354-29.385-17.165-.362-31.669 13.876-31.669 31.025.001 4.143 3.358 7.5 7.501 7.5z"/><path d="m409.642 236.202c-9.652 0-9.668 15 0 15 9.652 0 9.668-15 0-15z"/><path d="m106.383 388.111h-57.408c-4.143 0-7.5 3.357-7.5 7.5v28.756c0 4.143 3.357 7.5 7.5 7.5h57.408c4.143 0 7.5-3.357 7.5-7.5v-28.756c0-4.142-3.357-7.5-7.5-7.5zm-7.5 28.756h-42.408v-13.756h42.408z"/><path d="m506.028 330.14c-4.242-5.151-10.502-8.106-17.176-8.106h-212.816c-3.047 0-5.996.518-8.754 1.476-8.984-12.809-20.002-24.134-32.556-33.465h49.207c4.143 0 7.5-3.357 7.5-7.5v-138.846c1.295-104.174-113.401-175.418-206.996-129.479-8.76 4.159-2.328 17.709 6.434 13.551 83.882-41.146 186.713 22.597 185.561 115.93.001-.001.001 131.343.001 131.343h-52.398c10.657-12.055 18.583-26.418 21.565-38.48 1.221.116 2.447.192 3.674.228 14.858 0 26.946-12.088 26.946-26.945v-24.474c0-12.286-8.266-22.678-19.529-25.907 5.169-65.725-43.121-121.906-110.33-122.326-67.207.422-115.5 56.603-110.329 122.326-9.753 2.796-17.259 10.964-19.096 21.081l.234-36.847c0-36.219 15.55-70.942 42.663-95.267 7.218-6.477-2.798-17.64-10.018-11.166-30.28 27.166-47.647 65.959-47.647 106.384v138.845c.406 4.596 2.026 7.112 6.619 7.548h50.095c-36.592 27.198-58.765 70.873-58.765 116.494v20.888c0 9.697 15 9.697 15 0v-20.888c0-33.988 13.712-67.132 37.586-91.309l52.54 35.943c3.45 2.093 6.742 1.677 9.877-1.249l24.347-27.802v105.304c0 9.697 15 9.697 15 0v-105.304l24.348 27.803c3.135 2.926 6.427 3.342 9.877 1.249l52.346-35.81c5.113 5.193 9.802 10.818 14.011 16.828-2.599 3.271-4.46 7.179-5.303 11.494l-24.22 123.948h-98.898c-4.143 0-7.5 3.357-7.5 7.5v12.924c0 12.773 10.393 23.166 23.166 23.166h314.549c12.782 0 23.839-9.105 26.29-21.65l4.33-22.154c1.861-9.515-12.861-12.398-14.721-2.877l-4.33 22.154c-1.079 5.521-5.944 9.527-11.569 9.527h-212.819c-4.528 0-7.983-4.196-7.115-8.64l27.557-141.021c1.079-5.521 5.945-9.528 11.57-9.528h212.816c4.528 0 7.984 4.197 7.116 8.641l-15.572 79.688c-1.861 9.516 12.861 12.396 14.721 2.877l15.572-79.688c1.28-6.55-.419-13.261-4.661-18.412zm-359.062-35.468c-.015 0-.029 0-.044 0-40.008-.02-75.021-27.216-84.81-65.251 5.198-4.915 8.446-11.872 8.446-19.574v-24.301c24.125-.067 73.974-6.219 99.839-52.43 8.384 14.876 24.73 36.8 52.167 47.592-.777 2.727-.269 25.832-.405 29.139 0 8.174 3.66 15.51 9.426 20.456-.017.064-.034.128-.052.192-10.089 13.591-26.159 21.779-43.511 21.779h-14.15c-8.286-28.051-49.164-22.987-49.918 6.6.549 28.492 39.575 34.747 49.352 8.4h14.715c9.757 0 19.198-2.032 27.81-5.79-16.475 20.798-42.307 33.188-68.865 33.188zm2.389-25.552c-5.733 0-10.398-4.597-10.398-10.247.569-13.594 20.231-13.589 20.798 0-.001 5.65-4.666 10.247-10.4 10.247zm111.863-83.747v24.474c0 6.587-5.359 11.945-11.946 11.945-6.322-.251-12.111-5.03-12.111-11.945v-24.474c.639-15.869 23.417-15.869 24.057 0zm-114.858-133.233c52.564 0 95.329 42.373 95.329 94.456v12.87c-4.847 1.39-9.138 4.106-12.455 7.728-37.22-14.011-51.678-53.795-51.822-54.199-2.239-6.411-11.677-6.574-14.096-.179-9.233 24.423-26.242 41.408-50.554 50.484-18.305 6.833-36.264 7.542-46.703 7.181-3.504-5.265-8.81-9.232-15.029-11.016v-12.87c.001-52.082 42.765-94.455 95.33-94.455zm-114.859 133.233c0-6.587 5.359-11.945 11.946-11.945h.166c6.587 0 11.945 5.358 11.945 11.945v24.474c0 6.587-5.358 11.945-11.945 11.945h-.166c-6.587 0-11.946-5.358-11.946-11.945zm-14.774 27.964c1.757 14.99 16.662 25.963 31.739 23.017 4.271 14.576 11.723 27.705 21.493 38.69h-53.232zm91.492 121.698-44.046-30.133c7.02-5.611 14.626-10.511 22.715-14.612 13.008 9.342 28.236 15.711 44.571 18.205zm77.495 0-23.24-26.539c16.026-2.441 31.335-8.629 44.518-18.067 8.045 4.102 15.609 8.996 22.593 14.593zm-43.422 161.188c-4.503 0-8.166-3.663-8.166-8.166v-5.424h88.467c-1.146 4.443-1.118 9.226.388 13.59z"/><path d="m335.498 416.628c0 17.061 13.879 30.939 30.939 30.939 41.046-1.699 41.034-60.186 0-61.879-17.06 0-30.939 13.879-30.939 30.94zm46.879 0c0 8.789-7.15 15.939-15.939 15.939-21.146-.876-21.14-31.007 0-31.879 8.789 0 15.939 7.151 15.939 15.94z"/></g></svg>