<?xml version="1.0" encoding="utf-8"?>
<!-- Generator: Adobe Illustrator 22.0.1, SVG Export Plug-In . SVG Version: 6.00 Build 0)  -->
<svg version="1.1" id="Layer_1" xmlns="http://www.w3.org/2000/svg" xmlns:xlink="http://www.w3.org/1999/xlink" x="0px" y="0px"
	 viewBox="0 0 492 411.7" style="enable-background:new 0 0 492 411.7;" xml:space="preserve">
<g>
	<g>
		<path d="M484.1,187.9L306.5,10.2c-5.1-5.1-11.8-7.9-19-7.9c-7.2,0-14,2.8-19,7.9l-16.1,16.1c-5.1,5.1-7.9,11.8-7.9,19
			c0,7.2,2.8,14.2,7.9,19.3l103.7,103.9H26.6C11.7,168.5,0,180.1,0,195v22.8c0,14.9,11.7,27.6,26.6,27.6h330.5L252.2,349.9
			c-5.1,5.1-7.9,11.7-7.9,18.9c0,7.2,2.8,13.9,7.9,18.9l16.1,16.1c5.1,5.1,11.8,7.8,19,7.8c7.2,0,14-2.8,19-7.9l177.7-177.7
			c5.1-5.1,7.9-11.9,7.9-19.1C492,199.8,489.2,193,484.1,187.9z"/>
	</g>
</g>
</svg>
